<svg aria-hidden="true" style="position: absolute; width: 0; height: 0; overflow: hidden;" version="1.1" xmlns="http://www.w3.org/2000/svg" xmlns:xlink="http://www.w3.org/1999/xlink">
<defs>
<symbol id="mail_icon" viewBox="0 0 32 32">
<path fill="#f3f3f3" style="fill: var(--color1, #f3f3f3)" d="M29.576 4.364h-27.152c-0.514 0-1.008 0.204-1.371 0.568s-0.568 0.857-0.568 1.371v19.394c0 0.514 0.204 1.008 0.568 1.371s0.857 0.568 1.371 0.568h27.152c0.514 0 1.008-0.204 1.371-0.568s0.568-0.857 0.568-1.371v-19.394c0-0.514-0.204-1.008-0.568-1.371s-0.857-0.568-1.371-0.568zM28.083 25.697h-24.048l6.788-7.021-1.396-1.348-7.001 7.244v-16.795l12.053 11.995c0.363 0.361 0.855 0.564 1.367 0.564s1.004-0.203 1.367-0.564l12.364-12.296v16.97l-7.137-7.137-1.367 1.367 7.011 7.021zM3.695 6.303h24.31l-12.16 12.092-12.15-12.092z"></path>
</symbol>
<symbol id="youtube_icon" viewBox="0 0 32 32">
<path  d="M29.398 5.928c-0.867-0.624-3.283-1.453-13.407-1.453-10.848 0-12.458 0.952-12.975 1.263-2.749 1.651-3.010 8.963-3.034 10.445 0.033 1.958 0.349 8.472 3.032 10.084 0.516 0.31 2.116 1.257 12.976 1.257 10.13 0 12.543-0.825 13.407-1.447 2.343-1.685 2.612-7.49 2.619-9.92-0.006-1.954-0.211-8.496-2.619-10.23v-0zM28.23 24.455c-0.349 0.251-2.35 1.070-12.239 1.070-9.56 0-11.566-0.742-11.945-0.971-0.965-0.579-1.983-3.652-2.063-8.376 0.079-4.713 1.111-8.153 2.066-8.726 0.38-0.229 2.393-0.978 11.943-0.978 9.881 0 11.887 0.824 12.239 1.076 0.856 0.617 1.773 3.865 1.787 8.613-0.013 4.823-0.936 7.678-1.787 8.29v0zM22.513 15.213l-8.998-5.522c-0.152-0.091-0.325-0.141-0.502-0.144s-0.352 0.042-0.506 0.129c-0.154 0.087-0.283 0.214-0.372 0.367s-0.137 0.327-0.137 0.504v11.045c0 0.265 0.106 0.519 0.293 0.707s0.442 0.293 0.707 0.293c0.182 0 0.361-0.050 0.516-0.143l8.998-5.523c0.3-0.181 0.484-0.506 0.484-0.856s-0.183-0.676-0.483-0.857v0zM13.999 19.822v-7.503l6.062 3.751-6.063 3.752z"></path>
</symbol>
<symbol id="soc_icon" viewBox="0 0 32 32">
<path  d="M16.5 1.992l-0 6.996h7.010v2.999h-6.979l-0.010 8.704c0 1.618 0.084 2.657 0.255 3.117 0.267 0.727 1.236 1.657 3.037 1.657 1.397 0 3.281-0.42 4.692-1.477v4.666c-1.177 0.562-2.272 0.788-3.226 1.015-0.955 0.225-1.989 0.339-3.098 0.339-1.236 0-4.802-0.034-6.266-3.763-0.264-0.671-0.395-1.645-0.395-2.921v-11.332h-4.027l0.019-3.066c1.333 0 5.332-0.81 5.332-6.934l3.655-0zM16.5-0.008l-3.655-0c-1.104 0-2 0.895-2 2 0 4.578-2.551 4.934-3.332 4.934-1.101 0-1.995 0.889-2 1.99l-0.019 3.066c-0.003 0.532 0.207 1.043 0.582 1.421 0.186 0.187 0.407 0.335 0.65 0.436s0.504 0.153 0.768 0.153h2.027v9.332c0 1.543 0.175 2.738 0.534 3.652 0.901 2.295 3.043 5.032 8.127 5.032 1.259 0 2.456-0.132 3.558-0.392l0.22-0.052c0.933-0.22 2.126-0.493 3.407-1.104 0.341-0.162 0.629-0.418 0.831-0.738s0.309-0.69 0.309-1.068v-4.666c0-0.371-0.103-0.735-0.298-1.051s-0.474-0.571-0.806-0.737c-0.283-0.143-0.59-0.212-0.896-0.212-0.432 0-0.852 0.14-1.198 0.398-1.19 0.892-2.714 1.078-3.494 1.078-0.8 0-1.097-0.29-1.163-0.367-0.034-0.157-0.129-0.743-0.129-2.406l0.007-6.704h4.981c1.104 0 2-0.896 2-2v-2.999c0-1.104-0.896-2-2-2h-5.010v-4.996c0-1.105-0.895-2-2-2h0z"></path>
</symbol>
<symbol id="close_icon" viewBox="0 0 32 32">
<path fill="#f5f5f5" style="fill: var(--color2, #f5f5f5)" d="M16 12.648l11.733-11.733 3.352 3.352-11.733 11.733 11.733 11.733-3.352 3.352-11.733-11.733-11.733 11.733-3.352-3.352 11.733-11.733-11.733-11.733 3.352-3.352 11.733 11.733z"></path>
</symbol>
<symbol id="burger" viewBox="0 0 32 32">
<path fill="none" stroke="#f3f3f3" style="stroke: var(--color1, #f3f3f3)" stroke-linejoin="miter" stroke-linecap="butt" stroke-miterlimit="4" stroke-width="1.0323" d="M0 7.742h32"></path>
<path fill="none" stroke="#f3f3f3" style="stroke: var(--color1, #f3f3f3)" stroke-linejoin="miter" stroke-linecap="butt" stroke-miterlimit="4" stroke-width="1.0323" d="M0 16h32"></path>
<path fill="none" stroke="#f3f3f3" style="stroke: var(--color1, #f3f3f3)" stroke-linejoin="miter" stroke-linecap="butt" stroke-miterlimit="4" stroke-width="1.0323" d="M0 24.258h32"></path>
</symbol>
<symbol id="hero_vector" viewBox="0 0 0 32">
<path fill="none" stroke="#f3f3f3"  stroke-linejoin="miter" stroke-linecap="butt" stroke-miterlimit="4" stroke-width="0.2092" d="M0.209 0v32"></path>
</symbol>
<symbol id="logo_icon" viewBox="0 0 32 32">
<path fill="#f3f3f3" style="fill: var(--color1, #f3f3f3)" d="M31.979 15.799c-0.647-12.049-6.457-13.811-11.14-13.811h-0c-1.183 0.001-2.294 0.113-3.232 0.201-0.008-0.548 0.014-1.135 0.1-1.783 0.002-0.009-0.002-0.017-0.003-0.026 0.001-0.005 0.003-0.009 0.003-0.014 0-0.202-0.354-0.366-0.793-0.366-0.437 0-0.791 0.164-0.791 0.366-0.12 0.654-0.283 1.298-0.489 1.926-6.18 0.040-14.32 1.090-15.563 13.098-0.901 8.715 7.043 16.61 15.98 16.61s16.399-7.443 15.929-16.201zM17.939 3.878c0.218-0.021 0.444-0.042 0.677-0.062-0.279 0.121-0.551 0.246-0.806 0.371-0.019-0.090-0.032-0.198-0.049-0.294l0.178-0.016zM14.974 4.014c-0.070 0.156-0.138 0.306-0.204 0.443-0.157-0.152-0.323-0.294-0.498-0.424 0.234-0.009 0.467-0.014 0.701-0.019zM27.012 25.329c-2.776 3.15-6.772 4.957-10.962 4.957-4.27 0-8.512-2.025-11.347-5.417-2.297-2.749-3.378-6.048-3.042-9.29 0.63-6.085 3.142-8.991 6.367-10.367 3.124-0.622 6.064 0.52 6.064 0.52s-6.682-1.777-9.302 7.422c3.298-5.508 8.972-3.887 10.465-5.917 0 3.925 2.662 2.021 4.008 3.789 1.731 2.273 2.365 6.346 4.356 7.149-1.962-4.512 1.25-4.336-3.262-10.391 2.377 1.582 3.61-0.019 6.855 1.407-2.777-4.863-7.22-3.457-7.22-3.457s1.808-1.765 3.725-1.716c3.238 0.81 6.217 3.537 6.666 11.883 0.182 3.409-1.014 6.758-3.37 9.431z"></path>
</symbol>
<symbol id="hero_down_text_icon" viewBox="0 0 1 32">
<path fill="none" stroke="#f3f3f3" style="stroke: var(--color1, #f3f3f3)" stroke-linejoin="miter" stroke-linecap="butt" stroke-miterlimit="4" stroke-width="0.4103" d="M0.41 0v32"></path>
</symbol>
<symbol id="instagram_icon" viewBox="0 0 32 32">
<path d="M15.969 0.125c4.312 0 4.844 0.031 6.531 0.094 1.656 0.063 2.812 0.344 3.844 0.75 1.062 0.406 1.937 0.938 2.812 1.813s1.406 1.75 1.813 2.813c0.406 1.031 0.687 2.187 0.75 3.844 0.062 1.688 0.094 2.219 0.094 6.531s-0.031 4.844-0.094 6.531c-0.063 1.656-0.344 2.812-0.75 3.844-0.406 1.062-0.938 1.937-1.813 2.812s-1.75 1.406-2.812 1.813c-1.031 0.406-2.188 0.687-3.844 0.75-1.688 0.062-2.219 0.094-6.531 0.094s-4.844-0.031-6.531-0.094c-1.656-0.063-2.813-0.344-3.844-0.75-1.063-0.406-1.938-0.938-2.813-1.813s-1.406-1.75-1.813-2.812c-0.406-1.031-0.688-2.188-0.75-3.844-0.063-1.688-0.094-2.219-0.094-6.531s0.031-4.844 0.094-6.531c0.063-1.656 0.344-2.813 0.75-3.844 0.406-1.063 0.938-1.938 1.813-2.813s1.75-1.406 2.813-1.813c1.031-0.406 2.187-0.688 3.844-0.75 1.688-0.063 2.219-0.094 6.531-0.094zM15.969 2.188c-4.5 0-5.031 0.031-6.781 0.094-1.625 0.063-2.531 0.375-3.125 0.594-1.531 0.625-2.563 1.656-3.188 3.188-0.219 0.594-0.531 1.5-0.594 3.125-0.062 1.75-0.094 2.281-0.094 6.781s0.031 5.031 0.094 6.781c0.063 1.625 0.375 2.531 0.594 3.125 0.625 1.531 1.656 2.563 3.188 3.187 0.594 0.219 1.5 0.531 3.125 0.594 1.75 0.063 2.281 0.094 6.781 0.094s5.031-0.031 6.781-0.094c1.625-0.062 2.531-0.375 3.125-0.594 1.531-0.625 2.563-1.656 3.187-3.187 0.219-0.594 0.531-1.5 0.594-3.125 0.063-1.75 0.094-2.281 0.094-6.781s-0.031-5.031-0.094-6.781c-0.062-1.625-0.375-2.531-0.594-3.125-0.625-1.531-1.656-2.563-3.187-3.188-0.594-0.219-1.5-0.531-3.125-0.594-1.75-0.062-2.281-0.094-6.781-0.094zM15.969 22.312c3.5 0 6.344-2.844 6.344-6.344s-2.844-6.344-6.344-6.344c-3.5 0-6.344 2.844-6.344 6.344s2.844 6.344 6.344 6.344zM15.969 7.844c4.5 0 8.125 3.625 8.125 8.125s-3.625 8.125-8.125 8.125c-4.5 0-8.125-3.625-8.125-8.125s3.625-8.125 8.125-8.125zM26.344 7.531c0 1.063-0.875 1.875-1.938 1.875s-1.875-0.812-1.875-1.875c0-1.062 0.813-1.937 1.875-1.937s1.938 0.875 1.938 1.937z"></path>
</symbol>
<symbol id="twitter_icon" viewBox="0 0 37 32">
<path  d="M24.443 3.382c1.888 0 3.594 0.773 4.795 2.013 1.494-0.289 2.903-0.816 4.168-1.546-0.49 1.487-1.531 2.734-2.886 3.523 1.326-0.156 2.595-0.497 3.773-1.006-0.883 1.277-1.994 2.401-3.278 3.299 0.012 0.273 0.019 0.548 0.019 0.822 0 8.419-6.608 18.129-18.69 18.129-3.709 0-7.163-1.058-10.068-2.865 0.52 0.061 1.042 0.091 1.566 0.090 3.077 0 5.911-1.018 8.159-2.728-2.876-0.049-5.303-1.893-6.136-4.423 0.408 0.076 0.822 0.115 1.237 0.115 0.597 0 1.179-0.077 1.729-0.223-3.005-0.583-5.269-3.159-5.269-6.247v-0.082c0.886 0.478 1.898 0.765 2.977 0.798-1.763-1.144-2.923-3.091-2.923-5.302 0-1.169 0.325-2.263 0.89-3.201 3.239 3.853 8.079 6.39 13.539 6.657-0.113-0.465-0.171-0.957-0.171-1.451 0-3.519 2.941-6.371 6.57-6.371zM34.293 6.368v0zM24.443 1.096c-4.488 0-8.206 3.279-8.779 7.515-3.672-0.738-7.011-2.682-9.411-5.534-0.215-0.255-0.482-0.46-0.784-0.601s-0.631-0.214-0.965-0.214c-0.060 0-0.12 0.002-0.179 0.007-0.362 0.029-0.712 0.144-1.022 0.335s-0.568 0.453-0.756 0.764c-0.797 1.322-1.218 2.837-1.218 4.381 0 1.030 0.185 2.034 0.536 2.972-0.374 0.415-0.589 0.959-0.589 1.533v0.082c0 2.239 0.885 4.317 2.355 5.874-0.085 0.392-0.066 0.802 0.063 1.195 0.507 1.542 1.43 2.871 2.626 3.884-0.803 0.179-1.633 0.269-2.479 0.269-0.447 0-0.883-0.024-1.295-0.075-0.091-0.011-0.182-0.015-0.273-0.015-0.96 0-1.831 0.605-2.155 1.528-0.355 1.011 0.039 2.133 0.949 2.699 3.376 2.101 7.275 3.21 11.275 3.21 13.001 0 20.822-10.178 20.974-20.119 1.067-0.883 2.009-1.906 2.802-3.041 0.301-0.395 0.464-0.878 0.463-1.375 0-0.778-0.389-1.465-0.982-1.878 0.257-0.879-0.036-1.831-0.75-2.413-0.417-0.339-0.928-0.512-1.443-0.512-0.401-0-0.795 0.105-1.142 0.306-0.755 0.435-1.563 0.78-2.414 1.028-1.539-1.158-3.448-1.803-5.408-1.803z"></path>
</symbol>
<symbol id="hero_red_point" viewBox="0 0 32 32">
<path fill="#bc1a1a" style="fill: var(--color1, #bc1a1a)" opacity="0.8" d="M32 16c0 8.837-7.163 16-16 16s-16-7.163-16-16c0-8.837 7.163-16 16-16s16 7.163 16 16z"></path>
</symbol>


</defs>
</svg>


